<?xml version="1.0" encoding="iso-8859-1"?>
<!-- Uploaded to: SVG Repo, www.svgrepo.com, Generator: SVG Repo Mixer Tools -->
<svg fill="#000000" height="800px" width="800px" version="1.1" id="Layer_1" xmlns="http://www.w3.org/2000/svg" xmlns:xlink="http://www.w3.org/1999/xlink" 
	 viewBox="0 0 462.8 462.8" xml:space="preserve">
<g transform="translate(0 -540.36)">
	<g>
		<g>
			<circle cx="97.88" cy="920.458" r="7.5"/>
			<path d="M306.779,739.56c-12.7,0-23.5,10.8-23.5,23.5s10.8,23.5,23.5,23.5c12.8,0,23.5-10.8,23.5-23.5
				S319.479,739.56,306.779,739.56z M306.779,771.56c-4.4,0-8.5-4.1-8.5-8.5s4.1-8.5,8.5-8.5c4.5,0,8.5,4,8.5,8.5
				C315.279,767.46,311.179,771.56,306.779,771.56z"/>
			<path d="M98.479,605.06L98.479,605.06c0.7,0,1.4-0.1,2.1-0.3c3.9-1.2,6.2-5.3,5.1-9.3c-1.1-4-0.9-4.8,5-9.5
				c3.2-2.5,3.8-7.3,1.2-10.5c-2.5-3.2-7.3-3.8-10.5-1.2c-5.7,4.5-14.2,11.3-10.1,25.4C92.179,602.96,95.179,605.06,98.479,605.06z"
				/>
			<path d="M356.979,789.36c-12.7,0-23.5,10.8-23.5,23.5s10.8,23.5,23.5,23.5s23.5-10.8,23.5-23.5S369.679,789.36,356.979,789.36z
				 M356.979,821.36c-4.4,0-8.5-4.1-8.5-8.5s4.1-8.5,8.5-8.5c4.4,0,8.5,4.1,8.5,8.5S361.379,821.36,356.979,821.36z"/>
			<path d="M96.779,893.26l-2.5-6.2c-0.2-0.3-0.3-0.6-0.5-0.9c-9.1-15.7-14.1-35.1-14.1-54.7v-2.5c0-4.1-3.4-7.5-7.5-7.5
				c-4.1,0-7.5,3.4-7.5,7.5v2.5c0,22,5.6,43.9,15.8,61.8l2.3,5.7c1.2,2.9,4,4.7,7,4.7c0.9,0,1.8-0.1,2.9-0.6
				C96.479,901.46,98.279,897.06,96.779,893.26z"/>
			<path d="M387.479,749.36L387.479,749.36c-28.2-28.1-65.7-43.6-105.8-43.6c-40.1,0-77.7,15.5-105.8,43.6c-0.5,0.5-1,1-1.5,1.6
				c-0.9-2.4-1.8-4.9-2.7-7.3c-9.2-24.3-18.7-49.5-21.7-74.6c-0.8-12.2,4.2-26.8,9.1-41c8.1-23.5,17.2-50-1-69.1
				c-10.2-11.5-27.2-18.6-44.4-18.6c-16.2,0-33.1,7.3-43.2,18.6c-18.2,19.1-9.1,45.7-1,69.1c4.9,14.2,9.9,28.9,9.1,41.1
				c-2.3,26.5-12.7,52.5-22.8,77.7c-11.6,29.1-23.7,59.1-23.7,90.7c-1,33.4,10.5,65.4,21.6,96.3c3,8.4,6.1,17.1,8.9,25.6l0.1,0.3
				c1,2.5,1.7,5.5,2.4,8.7c2.1,8.6,4.4,18.4,13.1,23.6c10,7,23,10.4,36,10.4s26.1-3.5,36-10.4c8.7-5.2,11-14.9,13.1-23.6
				c0.8-3.2,1.5-6.2,2.4-8.7l0.2-0.6l0.1-0.6c0.4-2.1,1.3-4.6,2.3-7.2c2.4,2.8,4.9,5.5,7.5,8.1c28.1,28.2,65.7,43.7,105.8,43.7
				c40.2,0,77.8-15.5,105.8-43.7c28-28.1,43.4-65.6,43.4-105.6C430.979,814.46,415.579,777.26,387.479,749.36z M81.379,569.16
				l0.2-0.2c7.2-8.2,20.1-13.6,32-13.6c12.9,0,26,5.4,33.3,13.6l0.2,0.2c12,12.5,5.4,31.7-2.3,54c-3,8.8-6.1,17.8-8.1,26.7l-3.8,1.9
				c-11.8,5.3-25.8,5.3-37.5,0l-3.8-1.9c-1.9-8.9-5-17.9-8.1-26.7C75.979,600.86,69.279,581.66,81.379,569.16z M137.179,684.96
				c-14.6,6.3-31.2,6.2-45.7-0.4c0.9-4.7,1.5-9.4,2-14.2v-0.1c0.1-1,0.1-2.1,0.1-3.1c6.6,2.4,13.6,3.5,20.6,3.5s14-1.2,20.6-3.5
				c0,1.1,0.1,2.1,0.1,3.1v0.3C135.479,675.36,136.179,680.16,137.179,684.96z M156.079,941.76L156.079,941.76
				c-1.9,4.6-3.6,9-4.6,13.3c-1.2,3.3-2,6.7-2.8,10c-1.5,6.3-2.9,12.3-6.2,14.2l-0.6,0.4c-15,10.6-40.3,10.6-55.3,0l-0.6-0.4
				c-3.3-1.9-4.7-7.9-6.2-14.2c-0.8-3.4-1.7-7-2.9-10.4c-2.8-8.6-5.9-17.4-9-25.8c-10.6-29.7-21.6-60.4-20.7-90.9v-0.2
				c0-28.8,11-56.2,22.6-85.3c6.9-17.2,13.9-34.8,18.6-52.9c8.5,3.4,17.6,5.1,26.6,5.1c8.8,0,17.6-1.6,25.9-4.9
				c4.5,16.8,10.7,33.1,16.8,49.2c1.8,4.9,3.7,9.9,5.6,14.9c-19.9,25.7-30.7,57.1-30.7,90.1c0,30.3,8.9,59.2,25.3,83.6
				C157.179,938.96,156.679,940.36,156.079,941.76z M281.679,988.26c-74,0-134.3-60.3-134.3-134.4c0-73.4,60.2-133.1,134.3-133.1
				c74,0,134.3,59.7,134.3,133.1C415.979,927.96,355.779,988.26,281.679,988.26z"/>
		</g>
	</g>
</g>
</svg>