<?xml version="1.0" ?>
<!DOCTYPE svg  PUBLIC '-//W3C//DTD SVG 1.1//EN'  'http://www.w3.org/Graphics/SVG/1.1/DTD/svg11.dtd'>
<!-- Uploaded to: SVG Repo, www.svgrepo.com, Generator: SVG Repo Mixer Tools -->
<svg fill="#000000" width="800px" height="800px" viewBox="0 0 100 100" version="1.1" xml:space="preserve" xmlns="http://www.w3.org/2000/svg" xmlns:xlink="http://www.w3.org/1999/xlink">
<g id="_x31_"/>
<g id="_x32_"/>
<g id="_x33_"/>
<g id="_x34_"/>
<g id="_x35_"/>
<g id="_x36_"/>
<g id="_x37_"/>
<g id="_x38_"/>
<g id="_x39_"/>
<g id="_x31_0"/>
<g id="_x31_1">
<path d="M38.4,70.3c-15.1,0-27-6.2-27.9-14.4c0-0.1,0-0.1,0-0.2c0-0.2,0-0.5,0-0.7c0-8.2,11.7-14.7,27.9-15.3   c28.4-1.1,44.5,2.3,48.9,10.4c0,0,0.1,0.1,0.1,0.2c0.8,1.4,1.2,3,1.2,4.7c0,7.3-8.4,7.9-17.3,8.4c-2.9,0.2-5.8,0.4-8.8,0.7   c-3.9,0.5-6.8,1.7-9.9,2.9C48.6,68.6,44.5,70.3,38.4,70.3z M13.5,55.5c0.7,6.5,11.8,11.7,24.9,11.7c5.5,0,9.2-1.5,13-3.1   c3.1-1.3,6.3-2.6,10.6-3.1c3.1-0.4,6.1-0.6,9-0.8c9.3-0.6,14.5-1.1,14.5-5.4c0-1.2-0.2-2.2-0.7-3.2c0,0-0.1-0.1-0.1-0.1   c-2.6-4.8-12.7-10.3-46.3-8.9c-14,0.5-25,6-25,12.3C13.4,55.1,13.4,55.3,13.5,55.5C13.5,55.5,13.5,55.5,13.5,55.5z M38.4,83.9   c-15.7,0-28-6.7-28-15.3c0-0.7-0.1-1.7-0.2-2.8c-0.3-2.8-0.8-6.7,0.3-10.5c0.2-0.7,0.9-1.1,1.6-1.1c0.7,0.1,1.3,0.6,1.4,1.3   c0.6,6.5,11.8,11.7,24.9,11.7c5.5,0,9.2-1.5,13-3.1c3.1-1.3,6.3-2.6,10.6-3.1c3.1-0.4,6.1-0.6,9-0.8c9.3-0.6,14.5-1.1,14.5-5.4   c0-1.2-0.3-2.3-0.8-3.3c-0.3-0.6-0.2-1.4,0.3-1.8c0.5-0.5,1.3-0.5,1.8-0.2c3.1,2,2.7,8.3,1.9,15.6c-0.1,1.4-0.3,2.6-0.3,3.3   c0,7.3-8.4,7.9-17.3,8.4c-2.9,0.2-5.8,0.4-8.8,0.7c-3.9,0.5-6.8,1.7-9.9,2.9C48.6,82.2,44.5,83.9,38.4,83.9z M12.8,61.3   c0,1.4,0.2,2.8,0.3,4.1c0.1,1.2,0.3,2.3,0.3,3.2c0,6.7,11.4,12.3,25,12.3c5.5,0,9.2-1.5,13-3.1c3.1-1.3,6.3-2.6,10.6-3.1   c3.1-0.4,6.1-0.6,9-0.8c9.3-0.6,14.5-1.1,14.5-5.4c0-0.8,0.1-2,0.3-3.6c0.1-1.1,0.3-3,0.4-4.9c-3.1,2.5-8.9,2.9-15,3.3   c-2.9,0.2-5.8,0.4-8.8,0.7c-3.9,0.5-6.8,1.7-9.9,2.9c-3.9,1.6-8,3.3-14.1,3.3C26.9,70.3,17.2,66.6,12.8,61.3z M35.2,61.3   c-6.7,0-11.7-2.8-11.7-6.4s5-6.4,11.7-6.4s11.7,2.8,11.7,6.4S41.8,61.3,35.2,61.3z M35.2,51.4c-5.3,0-8.7,2-8.7,3.4   s3.4,3.4,8.7,3.4s8.7-2,8.7-3.4S40.5,51.4,35.2,51.4z M71.8,54.5c0.6-0.5,0.7-1.5,0.2-2.1c-5-6.1-16.9-5.8-17.4-5.8   c-0.8,0-1.5,0.7-1.4,1.5c0,0.8,0.7,1.5,1.5,1.4c0.1,0,11-0.3,15,4.7c0.3,0.4,0.7,0.6,1.2,0.6C71.2,54.9,71.6,54.8,71.8,54.5z    M25.6,33.1c1.3-1.9,2.9-6.3-0.2-9.5c-2.2-2.2,0.1-5.5,0.2-5.7c0.5-0.7,0.3-1.6-0.4-2.1c-0.7-0.5-1.6-0.3-2.1,0.4   c-1.3,1.9-2.9,6.3,0.2,9.5c2.2,2.2-0.1,5.5-0.2,5.7c-0.5,0.7-0.3,1.6,0.4,2.1c0.3,0.2,0.6,0.3,0.9,0.3   C24.8,33.8,25.3,33.5,25.6,33.1z M50.6,33.1c1.3-1.9,2.9-6.3-0.2-9.5c-2.2-2.2,0.1-5.5,0.2-5.7c0.5-0.7,0.3-1.6-0.4-2.1   c-0.7-0.5-1.6-0.3-2.1,0.4c-1.3,1.9-2.9,6.3,0.2,9.5c2.2,2.2-0.1,5.5-0.2,5.7c-0.5,0.7-0.3,1.6,0.4,2.1c0.3,0.2,0.6,0.3,0.9,0.3   C49.8,33.8,50.3,33.5,50.6,33.1z M76.6,33.1c1.3-1.9,2.9-6.3-0.2-9.5c-2.2-2.2,0.1-5.5,0.2-5.7c0.5-0.7,0.3-1.6-0.4-2.1   c-0.7-0.5-1.6-0.3-2.1,0.4c-1.3,1.9-2.9,6.3,0.2,9.5c2.2,2.2-0.1,5.5-0.2,5.7c-0.5,0.7-0.3,1.6,0.4,2.1c0.3,0.2,0.6,0.3,0.9,0.3   C75.8,33.8,76.3,33.5,76.6,33.1z"/>
</g>
<g id="_x31_2"/>
<g id="_x31_3"/>
<g id="_x31_4"/>
<g id="_x31_5"/>
<g id="_x31_6"/>
<g id="_x31_7"/>
<g id="_x31_8"/>
<g id="_x31_9"/>
<g id="_x32_0"/>
<g id="_x32_1"/>
<g id="_x32_2"/>
<g id="_x32_3"/>
<g id="_x32_4"/>
</svg>